<?xml version="1.0" encoding="utf-8"?>
<!-- Generator: Adobe Illustrator 24.0.0, SVG Export Plug-In . SVG Version: 6.00 Build 0)  -->
<svg version="1.1" id="Layer_1" xmlns="http://www.w3.org/2000/svg" xmlns:xlink="http://www.w3.org/1999/xlink" x="0px" y="0px"
	 viewBox="0 0 200 192.7" style="enable-background:new 0 0 200 192.7;" xml:space="preserve">
<style type="text/css">
	.st0{fill:none;}
	.st1{fill:#4C9AD4;stroke:#FFFFFF;stroke-width:0.9761;stroke-miterlimit:10;}
</style>
<g>
	<path class="st0" d="M0,0"/>
</g>
<path class="st1" d="M89.9,1.8c-26-2.1-51.8,2.1-69.1,23.8C12.6,35.9,8.5,48.9,6.2,61.7c-2.6,14.4-3.5,28.1,0,42.4
	c1.9,7.7,4.5,15.3,6.7,22.9c2.7,9.3,3.6,18.6,9,26.9c5.6,8.6,14.8,14.6,25,16.1c8.5,1.3,18.5,3,24.4,9.8c2.3,2.6,4.4,5.6,7.4,7.4
	c7.4,4.6,20.1,3,28.7,3.5c9.2,0.5,18.3,0.9,27.5,0.5c15.2-0.7,35.8-3.6,42.5-19.7c0.6-1.5,1.1-3,1.4-4.6
	c6.9-32.8-25.6-61.5-12.6-87.1c4.6-9,11.5-16,19-22.6c6.7-5.9,13.8-12.1,9.5-22c-2-4.7-6-8.3-10.5-10.8c-14.5-8-33.2-10.9-49.1-14.6
	C121.2,6.5,105.6,3,89.9,1.8z"/>
</svg>
