<?xml version="1.0" encoding="utf-8"?>
<!-- Generator: Adobe Illustrator 24.0.0, SVG Export Plug-In . SVG Version: 6.00 Build 0)  -->
<svg version="1.1" id="Layer_1" xmlns="http://www.w3.org/2000/svg" xmlns:xlink="http://www.w3.org/1999/xlink" x="0px" y="0px"
	 viewBox="0 0 628 120" style="enable-background:new 0 0 628 120;" xml:space="preserve">
<style type="text/css">
	.st0{fill:#FFFFFF;}
	.st1{fill:#80C9FF;}
</style>
<title>hoan</title>
<g id="Layer_2_1_">
	<g id="Layer_1-2">
		<polygon class="st0" points="106.8,118.3 106.8,74.8 30.7,74.8 30.7,118.3 0,118.3 0,1.6 30.7,1.6 30.7,44.9 106.8,44.9 
			106.8,1.6 137.2,1.6 137.2,118.3 		"/>
		<path class="st0" d="M230.6,120c-44.1,0-53.9-1.1-61.6-7.9c-7.7-6.6-9.9-18.1-9.9-52.9c0-32.9,2.2-44.9,9.9-51.2s17.5-8,61.3-8
			s53.7,1.4,61.3,7.9s9.9,18.4,9.9,52s-2.2,45.5-9.9,52.3C284,118.9,274.1,120,230.6,120z M230.3,27.4c-21.4,0-26.6,0-31.2,1.6
			c-9.6,2.7-11,10.7-11,34.2c0,15.6,1.1,20.8,5.5,24.6c4.7,4.1,9.6,4.7,37.3,4.7c26.3,0,31.8-0.8,36.4-4.7c4.7-4.1,5.5-9.3,5.5-24.6
			c0-18.3-0.8-24.9-4.1-29.6C264.5,27.7,259.9,27.4,230.3,27.4L230.3,27.4z"/>
		<polygon class="st0" points="436,118.3 395.2,31.8 387,31.8 345.9,118.3 312.8,118.3 367,1.6 415.2,1.6 468.9,118.3 		"/>
		<polygon class="st0" points="574.6,118.3 518.7,28.2 512.7,28.2 513.5,118.3 483.9,118.3 483.9,1.6 537.9,1.6 593.5,91.5 
			599.2,91.5 598.4,1.6 628,1.6 628,118.3 		"/>
		<path class="st1" d="M393,118l18.9-32.6c0.3-0.7,0-1.5-0.5-1.9c-0.2,0-0.4-0.1-0.5-0.3h-38.1c-0.7,0-1.3,0.5-1.4,1.2
			c0,0.1,0,0.1,0,0.2c0,0.3,0.1,0.6,0.3,0.8l18.9,32.6c0.5,0.6,1.2,0.8,1.9,0.6L393,118z"/>
	</g>
</g>
</svg>
