<svg xmlns="http://www.w3.org/2000/svg" viewBox="0 0 628 119.96"><defs><style>.cls-1{fill:#060e30;}.cls-2{fill:#0068c8;}</style></defs><title>hoan</title><g id="Layer_2" data-name="Layer 2"><g id="Layer_1-2" data-name="Layer 1"><polygon class="cls-1" points="106.81 118.31 106.81 74.77 30.67 74.77 30.67 118.31 0 118.31 0 1.64 30.67 1.64 30.67 44.92 106.81 44.92 106.81 1.64 137.21 1.64 137.21 118.31 106.81 118.31"/><path class="cls-1" d="M230.6,120c-44.09,0-53.95-1.1-61.62-7.94-7.67-6.58-9.86-18.08-9.86-52.86,0-32.87,2.19-44.92,9.86-51.22S186.51,0,230.33,0,284,1.37,291.68,7.94s9.86,18.35,9.86,52-2.19,45.46-9.86,52.31C284,118.86,274.15,120,230.6,120Zm-.27-92.57c-21.36,0-26.57,0-31.22,1.64-9.59,2.74-11,10.68-11,34.24,0,15.61,1.1,20.81,5.48,24.64,4.66,4.11,9.59,4.66,37.25,4.66,26.29,0,31.77-.82,36.42-4.66,4.66-4.1,5.48-9.31,5.48-24.64,0-18.35-.82-24.93-4.11-29.58-4.1-6-8.76-6.3-38.34-6.3Z"/><polygon class="cls-1" points="436.01 118.31 395.2 31.77 386.99 31.77 345.91 118.31 312.77 118.31 367 1.64 415.2 1.64 468.88 118.31 436.01 118.31"/><polygon class="cls-1" points="574.59 118.31 518.72 28.21 512.7 28.21 513.52 118.31 483.94 118.31 483.94 1.64 537.89 1.64 593.49 91.47 599.24 91.47 598.42 1.64 628 1.64 628 118.31 574.59 118.31"/><path class="cls-2" d="M393,118l18.9-32.59a1.7,1.7,0,0,0-.55-1.92.94.94,0,0,1-.54-.27H372.75a1.29,1.29,0,0,0-1.37,1.37,1,1,0,0,0,.27.82L390.55,118a1.7,1.7,0,0,0,1.92.55Z"/></g></g></svg>