<?xml version="1.0" encoding="utf-8"?>
<!-- Generator: Adobe Illustrator 24.0.0, SVG Export Plug-In . SVG Version: 6.00 Build 0)  -->
<svg version="1.1" id="Layer_1" xmlns="http://www.w3.org/2000/svg" xmlns:xlink="http://www.w3.org/1999/xlink" x="0px" y="0px"
	 viewBox="0 0 24 24" style="enable-background:new 0 0 24 24;" xml:space="preserve">
<style type="text/css">
	.st0{clip-path:url(#SVGID_2_);}
	.st1{fill:#36496D;}
	.st2{fill:#64A6D8;}
</style>
<g>
	<defs>
		<rect id="SVGID_1_" y="3" width="24" height="18.5"/>
	</defs>
	<clipPath id="SVGID_2_">
		<use xlink:href="#SVGID_1_"  style="overflow:visible;"/>
	</clipPath>
	<g class="st0">
		<path class="st1" d="M22.7,21.5H2.5C1.1,21.5,0,20.4,0,19V5.5C0,4.1,1.1,3,2.5,3h19C22.9,3,24,4.1,24,5.5v10.4
			c0,0.4-0.3,0.7-0.7,0.7c-0.4,0-0.7-0.3-0.7-0.7V5.5c0-0.6-0.5-1.2-1.2-1.2h-19c-0.6,0-1.2,0.5-1.2,1.2v13.6c0,0.6,0.5,1.2,1.2,1.2
			h20.2c0.4,0,0.7,0.3,0.6,0.7C23.3,21.3,23,21.5,22.7,21.5L22.7,21.5z"/>
		<path class="st2" d="M23.3,5.5L12,14.1L0.7,5.5c0-1,0.8-1.8,1.8-1.8h19C22.5,3.7,23.3,4.5,23.3,5.5z"/>
		<path class="st1" d="M12,14.7c-0.1,0-0.3,0-0.4-0.1L0.3,6C0.1,5.9,0,5.7,0,5.5C0,4.1,1.1,3,2.5,3h19C22.9,3,24,4.1,24,5.5
			c0,0.2-0.1,0.4-0.3,0.5l-11.3,8.6C12.3,14.7,12.1,14.7,12,14.7z M1.4,5.2L12,13.2l10.6-8.1c-0.1-0.5-0.6-0.9-1.1-0.9h-19
			C2,4.3,1.5,4.7,1.4,5.2L1.4,5.2z M22.7,21.5c-0.1,0-0.3,0-0.4-0.1l-4.7-3.5c-0.3-0.2-0.4-0.6-0.1-0.9c0.2-0.3,0.6-0.4,0.9-0.1
			l4.7,3.5c0.3,0.2,0.4,0.6,0.1,0.9C23.1,21.4,22.9,21.5,22.7,21.5L22.7,21.5z M1.6,21.3C1.2,21.3,1,21,1,20.7
			c0-0.2,0.1-0.4,0.3-0.5l4.4-3.3c0.3-0.2,0.7-0.2,0.9,0.1c0.2,0.3,0.2,0.7-0.1,0.9L2,21.2C1.9,21.3,1.8,21.3,1.6,21.3z"/>
	</g>
</g>
</svg>
